<svg width="65" height="15" viewBox="0 0 65 15" fill="none" xmlns="http://www.w3.org/2000/svg">
<path d="M0.480002 14.5C0.440002 14.5 0.420002 14.46 0.420002 14.38C0.420002 14.3 0.440002 14.26 0.480002 14.26C0.866669 14.26 1.14667 14.2267 1.32 14.16C1.49334 14.0933 1.61334 13.9667 1.68 13.78C1.74667 13.58 1.78 13.28 1.78 12.88V2.5C1.78 2.00667 1.73334 1.65333 1.64 1.44C1.54667 1.22667 1.38 1.12 1.14 1.12C0.926669 1.12 0.606669 1.22 0.180002 1.42L0.140002 1.44C0.0866691 1.44 0.0466691 1.40667 0.0200024 1.34C0.00666911 1.27333 0.0266691 1.22667 0.0800024 1.2L2.54 -4.76837e-07H2.58C2.67334 -4.76837e-07 2.72 0.046666 2.72 0.139999V12.88C2.72 13.28 2.75334 13.58 2.82 13.78C2.88667 13.9667 3.00667 14.0933 3.18 14.16C3.36667 14.2267 3.65334 14.26 4.04 14.26C4.06667 14.26 4.08 14.3 4.08 14.38C4.08 14.46 4.06667 14.5 4.04 14.5C3.73334 14.5 3.48667 14.4933 3.3 14.48L2.26 14.46L1.2 14.48C1.02667 14.4933 0.786669 14.5 0.480002 14.5ZM5.86 14.5C5.82 14.5 5.8 14.46 5.8 14.38C5.8 14.3 5.82 14.26 5.86 14.26C6.24667 14.26 6.52667 14.2267 6.7 14.16C6.87334 14.0933 6.99334 13.9667 7.06 13.78C7.12667 13.58 7.16 13.28 7.16 12.88V9.62C7.16 8.80667 7.00667 8.20667 6.7 7.82C6.39334 7.43333 5.92 7.24 5.28 7.24C4.76 7.24 4.24 7.41333 3.72 7.76C3.2 8.09333 2.74 8.54667 2.34 9.12L2.26 8.88C2.87334 8.06667 3.46667 7.48 4.04 7.12C4.61334 6.76 5.20667 6.58 5.82 6.58C6.55334 6.58 7.11334 6.78667 7.5 7.2C7.9 7.6 8.1 8.2 8.1 9V12.88C8.1 13.28 8.13334 13.58 8.2 13.78C8.26667 13.9667 8.38667 14.0933 8.56 14.16C8.74667 14.2267 9.03334 14.26 9.42 14.26C9.44667 14.26 9.46 14.3 9.46 14.38C9.46 14.46 9.44667 14.5 9.42 14.5C9.11334 14.5 8.86667 14.4933 8.68 14.48L7.64 14.46L6.58 14.48C6.40667 14.4933 6.16667 14.5 5.86 14.5ZM12.5619 8.88C13.2819 7.97333 13.8219 7.36667 14.1819 7.06C14.5552 6.75333 14.9085 6.6 15.2419 6.6C15.5352 6.6 15.8085 6.68 16.0619 6.84C16.3285 6.98667 16.4619 7.16 16.4619 7.36C16.4619 7.49333 16.4085 7.61333 16.3019 7.72C16.2085 7.82667 16.0685 7.88 15.8819 7.88C15.7485 7.88 15.6285 7.84667 15.5219 7.78C15.4152 7.7 15.3485 7.65333 15.3219 7.64C15.0685 7.44 14.8152 7.34 14.5619 7.34C14.3619 7.34 14.1352 7.44667 13.8819 7.66C13.6419 7.87333 13.2285 8.34667 12.6419 9.08L12.5619 8.88ZM10.7819 14.5C10.7419 14.5 10.7219 14.46 10.7219 14.38C10.7219 14.3 10.7419 14.26 10.7819 14.26C11.1685 14.26 11.4485 14.2267 11.6219 14.16C11.7952 14.0933 11.9152 13.9667 11.9819 13.78C12.0485 13.58 12.0819 13.28 12.0819 12.88V8.88C12.0819 8.41333 12.0285 8.08 11.9219 7.88C11.8152 7.68 11.6285 7.58 11.3619 7.58C11.1485 7.58 10.7752 7.68 10.2419 7.88H10.2019C10.1485 7.88 10.1085 7.85333 10.0819 7.8C10.0685 7.73333 10.0885 7.68667 10.1419 7.66L12.3619 6.62C12.3885 6.60667 12.4219 6.6 12.4619 6.6C12.5685 6.6 12.6885 6.75333 12.8219 7.06C12.9552 7.35333 13.0219 7.73333 13.0219 8.2V12.88C13.0219 13.28 13.0685 13.58 13.1619 13.78C13.2552 13.9667 13.4352 14.0933 13.7019 14.16C13.9819 14.2267 14.4219 14.26 15.0219 14.26C15.0619 14.26 15.0819 14.3 15.0819 14.38C15.0819 14.46 15.0619 14.5 15.0219 14.5C14.5952 14.5 14.2552 14.4933 14.0019 14.48L12.5619 14.46L11.5019 14.48C11.3285 14.4933 11.0885 14.5 10.7819 14.5ZM18.9889 8.06C18.9889 8.55333 19.1422 8.94 19.4489 9.22C19.7556 9.48667 20.2222 9.77333 20.8489 10.08C21.3022 10.3067 21.6622 10.5067 21.9289 10.68C22.1956 10.8533 22.4222 11.08 22.6089 11.36C22.7956 11.6267 22.8889 11.9533 22.8889 12.34C22.8889 13.0067 22.6356 13.5733 22.1289 14.04C21.6356 14.4933 20.9556 14.72 20.0889 14.72C19.3822 14.72 18.7556 14.5133 18.2089 14.1C18.1289 14.0467 18.0889 13.9667 18.0889 13.86L18.0489 12.42C18.0489 12.38 18.0822 12.36 18.1489 12.36C18.2289 12.3467 18.2756 12.36 18.2889 12.4C18.5422 13.0667 18.8622 13.56 19.2489 13.88C19.6489 14.1867 20.1222 14.34 20.6689 14.34C21.1222 14.34 21.4689 14.24 21.7089 14.04C21.9489 13.84 22.0689 13.5467 22.0689 13.16C22.0689 12.7733 21.9822 12.4533 21.8089 12.2C21.6489 11.9333 21.4422 11.72 21.1889 11.56C20.9489 11.4 20.6156 11.22 20.1889 11.02C19.7489 10.8067 19.3956 10.62 19.1289 10.46C18.8756 10.2867 18.6556 10.06 18.4689 9.78C18.2956 9.5 18.2089 9.15333 18.2089 8.74C18.2089 8.03333 18.4756 7.48667 19.0089 7.1C19.5422 6.71333 20.1689 6.52 20.8889 6.52C21.3822 6.52 21.8556 6.62 22.3089 6.82C22.3889 6.86 22.4356 6.89333 22.4489 6.92C22.4756 6.94667 22.4889 6.98667 22.4889 7.04C22.4889 7.29333 22.4822 7.49333 22.4689 7.64L22.4489 8.42C22.4489 8.44667 22.4089 8.46 22.3289 8.46C22.2489 8.46 22.2089 8.44667 22.2089 8.42C22.2089 7.99333 21.9889 7.64 21.5489 7.36C21.1089 7.06667 20.6422 6.92 20.1489 6.92C19.7889 6.92 19.5022 7.02 19.2889 7.22C19.0889 7.40667 18.9889 7.68667 18.9889 8.06ZM24.3667 14.5C24.3267 14.5 24.3067 14.46 24.3067 14.38C24.3067 14.3 24.3267 14.26 24.3667 14.26C24.7534 14.26 25.0334 14.2267 25.2067 14.16C25.3801 14.0933 25.5001 13.9667 25.5667 13.78C25.6334 13.58 25.6667 13.28 25.6667 12.88V2.5C25.6667 2.00667 25.6201 1.65333 25.5267 1.44C25.4334 1.22667 25.2667 1.12 25.0267 1.12C24.8134 1.12 24.4934 1.22 24.0667 1.42H24.0267C23.9734 1.42 23.9334 1.38667 23.9067 1.32C23.8934 1.25333 23.9134 1.21333 23.9667 1.2L26.3667 0.0199993L26.4667 -4.76837e-07C26.4934 -4.76837e-07 26.5201 0.0133327 26.5467 0.039999C26.5867 0.0666661 26.6067 0.0999994 26.6067 0.139999V12.88C26.6067 13.28 26.6401 13.58 26.7067 13.78C26.7734 13.9667 26.8934 14.0933 27.0667 14.16C27.2534 14.2267 27.5401 14.26 27.9267 14.26C27.9534 14.26 27.9667 14.3 27.9667 14.38C27.9667 14.46 27.9534 14.5 27.9267 14.5C27.6201 14.5 27.3734 14.4933 27.1867 14.48L26.1467 14.46L25.0867 14.48C24.9134 14.4933 24.6734 14.5 24.3667 14.5ZM29.3867 14.5C29.3601 14.5 29.3467 14.46 29.3467 14.38C29.3467 14.3 29.3601 14.26 29.3867 14.26C29.7601 14.26 30.0267 14.2333 30.1867 14.18C30.3601 14.1133 30.4467 14.0133 30.4467 13.88C30.4467 13.76 30.3867 13.6133 30.2667 13.44L27.7067 9.9L28.5267 9.3L31.0867 12.88C31.7267 13.8 32.5067 14.26 33.4267 14.26C33.4534 14.26 33.4667 14.3 33.4667 14.38C33.4667 14.46 33.4534 14.5 33.4267 14.5C33.1201 14.5 32.8734 14.4933 32.6867 14.48L31.6467 14.46L30.2467 14.48C30.0334 14.4933 29.7467 14.5 29.3867 14.5ZM26.2667 10.86L29.5067 8.34C29.9601 8.00667 30.1867 7.72 30.1867 7.48C30.1867 7.17333 29.7667 7.02 28.9267 7.02C28.8867 7.02 28.8667 6.98 28.8667 6.9C28.8667 6.82 28.8867 6.78 28.9267 6.78C29.2867 6.78 29.5601 6.78667 29.7467 6.8L31.1667 6.82L32.4867 6.8C32.6467 6.78667 32.8801 6.78 33.1867 6.78C33.2134 6.78 33.2267 6.82 33.2267 6.9C33.2267 6.98 33.2134 7.02 33.1867 7.02C32.1867 7.02 31.0801 7.48 29.8667 8.4L26.3467 11.06L26.2667 10.86ZM35.6109 14.72C35.3709 14.72 35.1776 14.6467 35.0309 14.5C34.8843 14.3667 34.8109 14.18 34.8109 13.94C34.8109 13.7133 34.8843 13.5333 35.0309 13.4C35.1776 13.2667 35.3709 13.2 35.6109 13.2C35.8643 13.2 36.0576 13.2667 36.1909 13.4C36.3243 13.5333 36.3909 13.7133 36.3909 13.94C36.3909 14.18 36.3243 14.3667 36.1909 14.5C36.0576 14.6467 35.8643 14.72 35.6109 14.72ZM41.4172 14.76C40.8572 14.76 40.3372 14.6 39.8572 14.28C39.3905 13.96 39.0105 13.5133 38.7172 12.94C38.4372 12.3533 38.2972 11.6933 38.2972 10.96C38.2972 10.0267 38.5305 9.22667 38.9972 8.56C39.4639 7.88 40.0505 7.37333 40.7572 7.04C41.4639 6.69333 42.1639 6.52 42.8572 6.52C43.7639 6.52 44.5772 6.84 45.2972 7.48L45.1172 8.76C44.7305 8.17333 44.3172 7.72 43.8772 7.4C43.4505 7.06667 42.9105 6.9 42.2572 6.9C41.3905 6.9 40.6972 7.20667 40.1772 7.82C39.6572 8.43333 39.3972 9.28667 39.3972 10.38C39.3972 11.1133 39.5172 11.76 39.7572 12.32C39.9972 12.88 40.3239 13.32 40.7372 13.64C41.1505 13.9467 41.6105 14.1 42.1172 14.1C42.6772 14.1 43.1905 13.9467 43.6572 13.64C44.1239 13.3333 44.6105 12.9 45.1172 12.34L45.2772 12.48C44.6639 13.1733 44.0639 13.7267 43.4772 14.14C42.8905 14.5533 42.2039 14.76 41.4172 14.76ZM45.7972 12.34C45.7972 12.8333 45.8505 13.1867 45.9572 13.4C46.0772 13.6133 46.2772 13.72 46.5572 13.72C46.9705 13.72 47.3372 13.62 47.6572 13.42L47.6972 13.4C47.7505 13.4 47.7839 13.4333 47.7972 13.5C47.8239 13.5667 47.8105 13.6133 47.7572 13.64L45.6972 14.62C45.6439 14.6467 45.5905 14.66 45.5372 14.66C45.3505 14.66 45.1905 14.5067 45.0572 14.2C44.9239 13.88 44.8572 13.44 44.8572 12.88V2.52C44.8572 2.02667 44.8039 1.67333 44.6972 1.46C44.6039 1.24667 44.4305 1.14 44.1772 1.14C44.0705 1.14 43.9305 1.17333 43.7572 1.24C43.5972 1.29333 43.4172 1.36 43.2172 1.44H43.1772C43.1239 1.44 43.0905 1.41333 43.0772 1.36C43.0639 1.29333 43.0772 1.24667 43.1172 1.22L45.5572 0.0199993C45.5839 0.0066661 45.6172 -4.76837e-07 45.6572 -4.76837e-07C45.6839 -4.76837e-07 45.7105 0.0133327 45.7372 0.039999C45.7772 0.0666661 45.7972 0.0999994 45.7972 0.139999V12.34ZM52.1111 14.74C51.3511 14.74 50.7044 14.56 50.1711 14.2C49.6378 13.84 49.2311 13.3733 48.9511 12.8C48.6844 12.2133 48.5511 11.58 48.5511 10.9C48.5511 10.1133 48.7378 9.39333 49.1111 8.74C49.4844 8.07333 49.9844 7.55333 50.6111 7.18C51.2511 6.79333 51.9444 6.6 52.6911 6.6C53.4378 6.6 53.9978 6.80667 54.3711 7.22C54.7578 7.62 54.9511 8.17333 54.9511 8.88C54.9511 9.06667 54.9311 9.2 54.8911 9.28C54.8644 9.34667 54.8044 9.38 54.7111 9.38H53.7711C53.7844 9.28667 53.7911 9.16 53.7911 9C53.7911 8.33333 53.6311 7.83333 53.3111 7.5C53.0044 7.16667 52.5844 7 52.0511 7C51.3044 7 50.7244 7.28 50.3111 7.84C49.8978 8.4 49.6911 9.18 49.6911 10.18C49.6911 11.34 49.9644 12.2867 50.5111 13.02C51.0578 13.74 51.8244 14.1 52.8111 14.1C53.2244 14.1 53.5778 14.0467 53.8711 13.94C54.1644 13.82 54.4844 13.6467 54.8311 13.42H54.8511C54.8911 13.42 54.9244 13.4467 54.9511 13.5C54.9911 13.54 54.9978 13.58 54.9711 13.62C54.0911 14.3667 53.1378 14.74 52.1111 14.74ZM49.4111 9.16L53.9711 9.08V9.38L49.4311 9.4L49.4111 9.16ZM64.4166 6.78C64.4432 6.78 64.4566 6.82 64.4566 6.9C64.4566 6.98 64.4432 7.02 64.4166 7.02C64.0832 7.02 63.8099 7.12 63.5966 7.32C63.3832 7.50667 63.1699 7.86667 62.9566 8.4L60.4566 14.48C60.4432 14.5333 60.3699 14.56 60.2366 14.56C60.1032 14.56 60.0299 14.5333 60.0166 14.48L57.2766 8.44C57.0099 7.85333 56.7899 7.47333 56.6166 7.3C56.4566 7.11333 56.2499 7.02 55.9966 7.02C55.9566 7.02 55.9366 6.98 55.9366 6.9C55.9366 6.82 55.9566 6.78 55.9966 6.78C56.2632 6.78 56.4699 6.78667 56.6166 6.8L57.2166 6.82L58.4766 6.8C58.6632 6.78667 58.9166 6.78 59.2366 6.78C59.2766 6.78 59.2966 6.82 59.2966 6.9C59.2966 6.98 59.2766 7.02 59.2366 7.02C58.4232 7.02 58.0166 7.18 58.0166 7.5C58.0166 7.59333 58.0432 7.69333 58.0966 7.8L60.6966 13.48L60.2366 14.06L62.6166 8.28C62.6966 8.05333 62.7366 7.87333 62.7366 7.74C62.7366 7.48667 62.6032 7.30667 62.3366 7.2C62.0832 7.08 61.6632 7.02 61.0766 7.02C61.0499 7.02 61.0366 6.98 61.0366 6.9C61.0366 6.82 61.0499 6.78 61.0766 6.78C61.4366 6.78 61.7099 6.78667 61.8966 6.8L63.0966 6.82L63.7966 6.8C63.9299 6.78667 64.1366 6.78 64.4166 6.78Z" fill="white"/>
</svg>
